<?xml version="1.0" standalone="no"?>
<!DOCTYPE svg PUBLIC "-//W3C//DTD SVG 20010904//EN"
 "http://www.w3.org/TR/2001/REC-SVG-20010904/DTD/svg10.dtd">
<svg version="1.0" xmlns="http://www.w3.org/2000/svg"
 width="156.000000pt" height="91.000000pt" viewBox="0 0 156.000000 91.000000"
 preserveAspectRatio="xMidYMid meet">
<metadata>
Created by potrace 1.16, written by Peter Selinger 2001-2019
</metadata>
<g transform="translate(0.000000,91.000000) scale(0.100000,-0.100000)"
fill="#000000" stroke="none">
<path d="M632 879 c-23 -12 -52 -35 -64 -51 -22 -32 -35 -109 -24 -152 8 -33
52 -83 89 -102 59 -31 187 -9 187 32 0 9 -3 14 -7 12 -58 -30 -91 -39 -121
-34 -79 12 -125 72 -119 154 3 45 9 59 39 89 47 47 118 57 173 24 33 -19 36
-20 33 -4 -4 24 -64 53 -108 53 -19 0 -54 -10 -78 -21z"/>
<path d="M1235 882 c-155 -74 -128 -284 41 -322 23 -5 37 -4 44 5 9 10 2 15
-31 20 -26 5 -55 19 -77 40 -32 29 -36 39 -39 91 -5 72 16 112 72 138 84 40
185 -9 202 -97 l8 -40 14 25 c11 22 11 31 -5 63 -37 78 -147 115 -229 77z"/>
<path d="M250 767 c-29 -70 -56 -130 -60 -132 -4 -3 -32 51 -61 120 -29 68
-55 122 -58 119 -6 -6 -60 -271 -61 -296 0 -10 6 -18 13 -18 8 0 19 36 31 108
10 59 22 110 26 115 3 4 29 -45 57 -109 l50 -116 38 89 c20 48 44 102 53 118
l15 30 23 -114 c13 -62 25 -116 28 -118 21 -21 18 25 -9 166 l-31 165 -54
-127z"/>
<path d="M900 725 c0 -103 4 -165 10 -165 6 0 10 33 10 80 0 58 4 80 13 80 6
-1 39 -37 71 -80 38 -51 67 -80 79 -80 15 0 9 12 -30 60 -81 102 -79 98 -46
106 46 11 63 32 63 79 0 62 -29 85 -108 85 l-62 0 0 -165z"/>
<path d="M1240 390 c-151 -175 -276 -317 -279 -314 -3 3 -40 105 -82 227 l-76
222 -90 3 -89 3 -11 -33 c-6 -18 -47 -138 -92 -266 l-80 -233 72 3 71 3 14 47
13 48 104 0 103 0 12 -50 12 -51 111 3 112 3 218 335 c223 343 240 370 234
370 -2 0 -127 -144 -277 -320z m-460 -177 c0 -9 -20 -13 -70 -13 l-69 0 15 48
c8 26 21 72 30 102 8 30 18 62 21 70 5 14 72 -179 73 -207z"/>
<path d="M0 265 l0 -268 138 6 c162 6 222 25 276 88 40 47 56 97 56 174 0 116
-47 194 -142 235 -44 19 -77 24 -190 28 l-138 5 0 -268z m260 127 c93 -46 93
-208 0 -254 -19 -10 -54 -18 -77 -18 l-43 0 0 145 0 145 43 0 c23 0 58 -8 77
-18z"/>
<path d="M950 524 c0 -9 144 -203 150 -204 3 0 34 32 69 71 l64 71 -41 -21
-41 -21 -38 55 -38 54 -62 1 c-35 0 -63 -3 -63 -6z"/>
<path d="M1238 187 c-21 -34 -48 -78 -60 -97 l-23 -35 45 36 45 37 50 -64 50
-64 67 0 c38 0 68 3 68 6 0 10 -191 244 -199 244 -3 0 -23 -28 -43 -63z"/>
</g>
</svg>
